<?xml version="1.0" encoding="UTF-8" standalone="no"?>
<!-- Created with Inkscape (http://www.inkscape.org/) -->

<svg
   xmlns:dc="http://purl.org/dc/elements/1.1/"
   xmlns:cc="http://creativecommons.org/ns#"
   xmlns:rdf="http://www.w3.org/1999/02/22-rdf-syntax-ns#"
   xmlns:svg="http://www.w3.org/2000/svg"
   xmlns="http://www.w3.org/2000/svg"
   xmlns:sodipodi="http://sodipodi.sourceforge.net/DTD/sodipodi-0.dtd"
   xmlns:inkscape="http://www.inkscape.org/namespaces/inkscape"
   width="210mm"
   height="297mm"
   viewBox="0 0 210 297"
   version="1.1"
   id="svg8"
   inkscape:version="0.92.4 (5da689c313, 2019-01-14)"
   sodipodi:docname="Bookme Logo.svg">
  <defs
     id="defs2" />
  <sodipodi:namedview
     id="base"
     pagecolor="#ffffff"
     bordercolor="#666666"
     borderopacity="1.0"
     inkscape:pageopacity="0.0"
     inkscape:pageshadow="2"
     inkscape:zoom="1"
     inkscape:cx="286.57072"
     inkscape:cy="600"
     inkscape:document-units="mm"
     inkscape:current-layer="layer1"
     showgrid="false"
     inkscape:window-width="1920"
     inkscape:window-height="1051"
     inkscape:window-x="-9"
     inkscape:window-y="-9"
     inkscape:window-maximized="1" />
  <metadata
     id="metadata5">
    <rdf:RDF>
      <cc:Work
         rdf:about="">
        <dc:format>image/svg+xml</dc:format>
        <dc:type
           rdf:resource="http://purl.org/dc/dcmitype/StillImage" />
        <dc:title></dc:title>
      </cc:Work>
    </rdf:RDF>
  </metadata>
  <g
     inkscape:label="Layer 1"
     inkscape:groupmode="layer"
     id="layer1">
    <path
       style="fill:#a05a2c;fill-opacity:1;stroke:none;stroke-width:0.27295992px;stroke-linecap:butt;stroke-linejoin:miter;stroke-opacity:1;opacity:1"
       d="m 203.94827,172.36107 -29.80139,-22.20482 -0.8448,4.23333 z"
       id="path879"
       inkscape:connector-curvature="0" />
    <path
       style="fill:#a05a2c;fill-opacity:1;stroke:none;stroke-width:0.26579615px;stroke-linecap:butt;stroke-linejoin:miter;stroke-opacity:1;opacity:1"
       d="m 6.6605772,96.093632 27.9901198,24.429288 1.06805,-8.46667 z"
       id="path877"
       inkscape:connector-curvature="0" />
    <path
       style="color:#000000;font-style:normal;font-variant:normal;font-weight:normal;font-stretch:normal;font-size:medium;line-height:normal;font-family:sans-serif;font-variant-ligatures:normal;font-variant-position:normal;font-variant-caps:normal;font-variant-numeric:normal;font-variant-alternates:normal;font-feature-settings:normal;text-indent:0;text-align:start;text-decoration:none;text-decoration-line:none;text-decoration-style:solid;text-decoration-color:#000000;letter-spacing:normal;word-spacing:normal;text-transform:none;writing-mode:lr-tb;direction:ltr;text-orientation:mixed;dominant-baseline:auto;baseline-shift:baseline;text-anchor:start;white-space:normal;shape-padding:0;clip-rule:nonzero;display:inline;overflow:visible;visibility:visible;opacity:1;isolation:auto;mix-blend-mode:normal;color-interpolation:sRGB;color-interpolation-filters:linearRGB;solid-color:#000000;solid-opacity:1;vector-effect:none;fill:#000000;fill-opacity:1;fill-rule:evenodd;stroke:none;stroke-width:13.85524559;stroke-linecap:butt;stroke-linejoin:miter;stroke-miterlimit:4;stroke-dasharray:none;stroke-dashoffset:0;stroke-opacity:1;color-rendering:auto;image-rendering:auto;shape-rendering:auto;text-rendering:auto;enable-background:accumulate"
       d="m 105.81424,53.453585 -3.51969,1.951198 -3.51969,1.951195 -15.470024,8.576402 C 53.363785,75.298444 32.865843,102.69737 32.85336,133.65595 v 0.002 0.0184 0.0326 0.0156 c 0.01904,4.06433 0.416856,8.10013 1.133296,12.07176 l -0.201925,27.47147 24.349438,13.95456 23.110349,13.24381 23.391022,13.40369 22.28912,-12.3571 c 30.07384,-9.29379 50.65897,-36.80468 50.67175,-67.84479 v -0.002 -0.0184 -0.0326 -0.0156 c -0.0191,-4.06428 -0.41686,-8.10013 -1.13329,-12.07176 L 176.66505,94.055652 152.31609,80.102024 129.20574,66.857278 Z"
       id="path853"
       inkscape:connector-curvature="0" />
    <path
       style="color:#000000;font-style:normal;font-variant:normal;font-weight:normal;font-stretch:normal;font-size:medium;line-height:normal;font-family:sans-serif;font-variant-ligatures:normal;font-variant-position:normal;font-variant-caps:normal;font-variant-numeric:normal;font-variant-alternates:normal;font-feature-settings:normal;text-indent:0;text-align:start;text-decoration:none;text-decoration-line:none;text-decoration-style:solid;text-decoration-color:#000000;letter-spacing:normal;word-spacing:normal;text-transform:none;writing-mode:lr-tb;direction:ltr;text-orientation:mixed;dominant-baseline:auto;baseline-shift:baseline;text-anchor:start;white-space:normal;shape-padding:0;clip-rule:nonzero;display:inline;overflow:visible;visibility:visible;opacity:1;isolation:auto;mix-blend-mode:normal;color-interpolation:sRGB;color-interpolation-filters:linearRGB;solid-color:#000000;solid-opacity:1;vector-effect:none;fill:#a05a2c;fill-opacity:1;fill-rule:evenodd;stroke:none;stroke-width:13.85524559;stroke-linecap:butt;stroke-linejoin:miter;stroke-miterlimit:4;stroke-dasharray:none;stroke-dashoffset:0;stroke-opacity:1;color-rendering:auto;image-rendering:auto;shape-rendering:auto;text-rendering:auto;enable-background:accumulate"
       d="m 103.48588,61.35742 -3.51969,1.951195 -15.985941,8.862219 C 56.489335,80.381981 37.605263,105.35898 37.593854,133.65878 v 0.017 0.017 c 0.0182,3.88608 0.40856,7.75991 1.137644,11.57841 l -0.177288,24.09308 20.858731,11.95385 23.110349,13.2438 19.89983,11.40345 18.45784,-10.2333 h -0.85794 l 0.95408,-0.26931 c 28.01453,-7.90799 47.32627,-33.16791 47.33805,-61.79829 v -0.017 -0.017 c -0.0182,-3.88609 -0.40857,-7.75991 -1.13765,-11.57842 l 0.17729,-24.093543 -20.85825,-11.95338 -23.11035,-13.244275 z"
       id="path844"
       inkscape:connector-curvature="0" />
    <path
       style="color:#000000;font-style:normal;font-variant:normal;font-weight:normal;font-stretch:normal;font-size:medium;line-height:normal;font-family:sans-serif;font-variant-ligatures:normal;font-variant-position:normal;font-variant-caps:normal;font-variant-numeric:normal;font-variant-alternates:normal;font-feature-settings:normal;text-indent:0;text-align:start;text-decoration:none;text-decoration-line:none;text-decoration-style:solid;text-decoration-color:#000000;letter-spacing:normal;word-spacing:normal;text-transform:none;writing-mode:lr-tb;direction:ltr;text-orientation:mixed;dominant-baseline:auto;baseline-shift:baseline;text-anchor:start;white-space:normal;shape-padding:0;clip-rule:nonzero;display:inline;overflow:visible;visibility:visible;opacity:1;isolation:auto;mix-blend-mode:normal;color-interpolation:sRGB;color-interpolation-filters:linearRGB;solid-color:#000000;solid-opacity:1;vector-effect:none;fill:#a05a2c;fill-opacity:1;fill-rule:nonzero;stroke:none;stroke-width:14.26539707;stroke-linecap:butt;stroke-linejoin:miter;stroke-miterlimit:4;stroke-dasharray:none;stroke-dashoffset:0;stroke-opacity:1;color-rendering:auto;image-rendering:auto;shape-rendering:auto;text-rendering:auto;enable-background:accumulate"
       d="M 30.084923,62.252129 26.042545,68.092045 6.660575,96.093635 180.5244,206.20257 203.94827,172.36107 Z"
       id="path874"
       inkscape:connector-curvature="0" />
    <path
       style="opacity:1;fill:#000000;fill-opacity:1;fill-rule:evenodd;stroke-width:0.24439113"
       d="m 104.04375,68.924157 -16.54872,9.17445 c -25.01876,7.06234 -42.264121,29.591103 -42.274453,55.225913 0.01739,3.71202 0.399827,7.41364 1.14199,11.05301 l -0.152651,20.74674 17.368024,9.95314 23.11035,13.2438 16.40864,9.4032 16.54824,-9.17445 h 5e-4 c 25.01858,-7.06229 42.26391,-29.5908 42.27445,-55.22544 -0.0174,-3.71202 -0.39983,-7.41364 -1.14199,-11.05301 l 0.15265,-20.74721 -17.36754,-9.952673 -23.11035,-13.24427 z m -4.88872,7.10581 c -0.60561,0.063 -1.21017,0.13532 -1.81346,0.21696 0.60329,-0.0816 1.20785,-0.15396 1.81346,-0.21696 z m -5.89546,0.74473 c -0.2905,0.062 -0.58051,0.12611 -0.87002,0.19243 0.28951,-0.0663 0.57952,-0.13047 0.87002,-0.19243 z m 54.31222,18.91204 0.0493,0.0552 z m 3.57766,4.491013 c 0.0273,0.0372 0.0545,0.0745 0.0816,0.11178 -0.0272,-0.0373 -0.0544,-0.0746 -0.0816,-0.11178 z m 3.09459,4.79617 c 0.0419,0.0716 0.0836,0.14329 0.12511,0.21506 -0.0416,-0.0717 -0.0833,-0.14346 -0.12511,-0.21506 z m 2.58831,5.05509 c 0.055,0.11977 0.1096,0.23973 0.16376,0.35987 -0.0541,-0.12014 -0.10875,-0.2401 -0.16376,-0.35987 z m 2.06902,5.27582 c 0.0596,0.17439 0.1184,0.34906 0.17632,0.52401 -0.058,-0.17495 -0.11669,-0.34962 -0.17632,-0.52401 z m 1.52603,5.42723 c 0.12351,0.50936 0.23994,1.02035 0.34927,1.53285 -0.10933,-0.5125 -0.22576,-1.02349 -0.34927,-1.53285 z M 46.364016,144.38367 c 0.109327,0.51249 0.225757,1.02349 0.349264,1.53285 -0.123507,-0.50936 -0.239937,-1.02036 -0.349264,-1.53285 z m 1.698977,6.43606 c 0.05792,0.17496 0.116698,0.34962 0.176326,0.52401 -0.05963,-0.17439 -0.118402,-0.34905 -0.176326,-0.52401 z m 2.081576,5.43997 c 0.05417,0.12014 0.108757,0.24009 0.163762,0.35987 -0.055,-0.11978 -0.109594,-0.23973 -0.163762,-0.35987 z m 2.625518,5.19706 c 0.04282,0.074 0.08582,0.14787 0.12898,0.22167 -0.04316,-0.0738 -0.08615,-0.14769 -0.12898,-0.22167 z m 3.137576,4.89898 c 0.02877,0.0398 0.05759,0.0796 0.08647,0.11932 -0.02888,-0.0397 -0.0577,-0.0795 -0.08647,-0.11932 z m 3.61196,4.55091 0.04927,0.0552 z m 55.268697,18.76677 c -0.30361,0.0695 -0.6078,0.13666 -0.91252,0.20139 0.30472,-0.0647 0.60891,-0.13185 0.91252,-0.20139 z m -4.94089,0.72256 c -0.62142,0.0844 -1.24419,0.15894 -1.86806,0.22356 0.62387,-0.0646 1.24664,-0.13916 1.86806,-0.22356 z"
       id="path835"
       inkscape:connector-curvature="0"
       sodipodi:nodetypes="cccccccccccccccccccccccccccccccccccccccccccccccccccccccccccccccc" />
    <rect
       style="opacity:1;fill:#000000;fill-opacity:1;stroke:#000000;stroke-width:13.19785786;stroke-miterlimit:4;stroke-dasharray:none;stroke-opacity:1"
       id="rect866"
       width="177.0553"
       height="24.92502"
       x="74.586655"
       y="44.640354"
       transform="matrix(0.84482157,0.53504814,-0.56911864,0.82225542,0,0)" />
    <text
       xml:space="preserve"
       style="font-style:normal;font-variant:normal;font-weight:normal;font-stretch:normal;font-size:35.15328598px;line-height:1.25;font-family:'ROG Fonts';-inkscape-font-specification:'ROG Fonts, Normal';font-variant-ligatures:normal;font-variant-caps:normal;font-variant-numeric:normal;font-feature-settings:normal;text-align:start;letter-spacing:0px;word-spacing:0px;writing-mode:lr-tb;text-anchor:start;fill:#ffffff;fill-opacity:1;stroke:none;stroke-width:0.87883204;opacity:1;"
       x="73.841095"
       y="67.08889"
       id="text858"
       transform="matrix(0.83584297,0.54515959,-0.62140496,0.79109971,0,0)"><tspan
         sodipodi:role="line"
         id="tspan856"
         x="73.841095"
         y="67.08889"
         style="font-style:normal;font-variant:normal;font-weight:normal;font-stretch:normal;font-size:35.15328598px;font-family:'ROG Fonts';-inkscape-font-specification:'ROG Fonts, Normal';font-variant-ligatures:normal;font-variant-caps:normal;font-variant-numeric:normal;font-feature-settings:normal;text-align:start;writing-mode:lr-tb;text-anchor:start;stroke-width:0.87883204;fill:#ffffff;">Bookme</tspan></text>
    <path
       style="fill:#ffffff;stroke-width:0.12706424"
       d="m 83.721283,94.777649 c -0.220016,-1.575973 1.906337,-2.018105 5.71847,-1.189035 1.820407,0.395907 2.538568,0.652775 2.408046,0.861317 -0.131296,0.20978 -2.793046,0.972338 -4.257165,1.219626 -2.389353,0.403555 -3.731691,0.09413 -3.869351,-0.891908 z m 1.898085,0.661095 c 0.863366,0.04732 3.264371,-0.355392 4.746185,-0.796061 0.809201,-0.24064 0.842608,-0.26331 0.495756,-0.336401 -0.204559,-0.04309 -0.992572,-0.210592 -1.751173,-0.372181 -3.250533,-0.692403 -5.155294,-0.411854 -5.008479,0.737693 0.0581,0.454927 0.573108,0.715181 1.517711,0.76695 z m 62.916602,39.556736 c -0.50458,-0.86136 -0.86869,-2.05339 -1.24958,-4.09093 -0.32083,-1.71619 -0.23481,-2.16368 0.31603,-1.6442 0.59155,0.55785 2.15537,2.65222 2.64902,3.54771 0.26275,0.47665 0.54651,1.16432 0.63057,1.52815 0.13317,0.57636 0.11351,0.72435 -0.15265,1.1496 -0.24561,0.39244 -0.38715,0.50096 -0.72232,0.55377 -0.56736,0.0894 -0.97767,-0.20183 -1.47107,-1.0441 z m 1.64036,0.60355 c 0.27891,-0.14389 0.36266,-0.25163 0.4093,-0.52654 0.14362,-0.84628 -0.82916,-2.59904 -2.78346,-5.01526 l -0.39006,-0.48225 0.11336,0.6965 c 0.22959,1.41059 0.80196,3.40513 1.21569,4.23636 0.51463,1.03395 0.9316,1.35098 1.43516,1.09119 z M 82.940543,88.692966 c -0.880335,-0.909956 -0.489582,-2.46318 0.722528,-2.872016 0.54796,-0.184824 1.798191,0.22083 3.001266,0.973806 1.518684,0.950509 4.072386,3.15182 5.396509,4.651826 0.481138,0.54505 0.190573,0.715914 -0.860346,0.505917 -4.017632,-0.802802 -7.035226,-1.993596 -8.259957,-3.259533 z m 3.198965,1.466142 c 1.580347,0.586714 5.073412,1.512513 5.399196,1.430994 0.166265,-0.0416 -1.997169,-2.1344 -3.300998,-3.193209 -1.450221,-1.177707 -3.165657,-2.119843 -3.958157,-2.173871 -1.284442,-0.08757 -1.88849,1.087534 -1.099951,2.139821 0.352261,0.470075 1.87208,1.392403 2.95991,1.796265 z m 66.629062,42.182482 c -1.53704,-1.46329 -3.80686,-4.2349 -3.73289,-4.55812 0.0614,-0.26851 0.14983,-0.28311 0.69248,-0.11478 2.51809,0.78115 4.58222,1.72262 6.23078,2.84191 1.06562,0.72346 1.31259,0.94518 1.55135,1.39236 0.69038,1.29305 -0.46221,2.67539 -1.90187,2.28101 -0.63718,-0.17456 -2.05234,-1.09266 -2.83984,-1.84239 z m 3.50691,1.51654 c 1.00068,-0.10871 1.30914,-0.90965 0.74162,-1.92562 -0.30955,-0.55414 -0.44183,-0.6662 -1.67715,-1.42088 -1.26378,-0.7721 -3.2076,-1.63909 -5.01673,-2.23766 l -0.70885,-0.23454 0.21981,0.33234 c 0.41471,0.627 1.67073,2.11661 2.49643,2.96072 0.45438,0.4645 0.90328,0.92639 0.99754,1.02641 0.0943,0.10004 0.68419,0.49039 1.31091,0.86753 1.00896,0.60707 1.19646,0.67947 1.63642,0.6317 z m -35.47624,-22.93119 c -0.58461,-0.60948 -0.72223,-0.83385 -1.07184,-1.74758 l -0.23551,-0.61545 -0.42376,0.0739 c -0.23307,0.0406 -0.75683,0.0508 -1.16391,0.0227 l -0.74016,-0.0512 -11.0725,-6.93592 -11.072506,-6.935919 0.144781,-0.300614 c 0.0944,-0.196007 0.2304,-0.294368 0.390816,-0.282657 0.13531,0.0099 5.117889,3.060219 11.072369,6.77853 l 10.82633,6.76062 0.61471,0.0419 c 0.33809,0.023 0.79051,-0.0138 1.00538,-0.0819 l 0.39068,-0.12382 0.14335,-0.91926 c 0.10143,-0.65052 0.24784,-1.08417 0.50081,-1.48336 0.37873,-0.59758 0.64085,-0.77234 1.13823,-0.75875 0.63858,0.0174 1.31601,0.65958 1.34562,1.2755 0.0217,0.45147 -0.67539,1.42087 -1.46786,2.04122 -0.40231,0.31495 -0.71109,0.63011 -0.68618,0.70038 0.64845,1.82897 0.89025,2.04884 4.55306,4.13996 3.35158,1.91344 14.59257,8.90943 17.75831,11.0521 2.13235,1.44324 2.43926,1.75491 1.97926,2.00974 -0.20604,0.11416 -1.03333,-0.38027 -10.68973,-6.38882 -5.75654,-3.58188 -10.97072,-6.78338 -11.58705,-7.11446 -0.79619,-0.42765 -1.27469,-0.76253 -1.65279,-1.15669 z m 14.68222,8.70602 c 5.45899,3.41665 8.48285,5.26168 7.53335,4.59647 -0.87241,-0.61114 -6.20521,-3.98433 -11.85071,-7.49588 l -10.26451,-6.38468 -0.29357,-0.55626 c -0.44403,-0.84134 -0.62894,-1.50147 -0.485,-1.73145 0.0711,-0.11362 0.43487,-0.42977 0.80834,-0.70255 1.33168,-0.97267 1.62702,-1.88153 0.78306,-2.40974 -0.43231,-0.27058 -0.77342,-0.24428 -1.16931,0.0902 -0.22796,0.1925 -0.58808,1.34185 -0.62376,1.99047 -0.0395,0.71683 -0.25121,0.9611 -0.92734,1.06971 -1.40771,0.22615 -0.63601,0.63855 -11.03347,-5.89657 -5.15049,-3.237253 -10.07936,-6.28177 -10.953043,-6.765591 -0.873682,-0.48382 3.324063,2.190875 9.328343,5.943741 10.7744,6.734 10.92486,6.82416 11.52823,6.88347 0.33626,0.033 0.87678,0.003 1.20114,-0.0663 0.69333,-0.14851 0.80074,-0.10185 0.90733,0.39414 0.13105,0.60975 0.5632,1.43512 1.03342,1.97374 0.35961,0.41192 0.89751,0.77039 2.89975,1.93251 1.35203,0.78473 6.56207,3.9952 11.57782,7.13444 z M 120.0384,107.32445 c -0.0399,-0.46815 0.20817,-1.50472 0.45598,-1.90546 0.31882,-0.51506 0.69894,-0.63738 1.13489,-0.36453 0.56387,0.35292 0.58316,0.65578 0.0845,1.32713 -0.44357,0.59713 -1.27262,1.25035 -1.51845,1.19634 -0.0758,-0.0167 -0.14645,-0.13071 -0.15691,-0.25348 z m 1.05085,-0.75657 c 0.64052,-0.60856 0.73004,-0.96362 0.29373,-1.16492 -0.21588,-0.0996 -0.35225,-0.0694 -0.49993,0.11084 -0.22305,0.27211 -0.52869,1.42135 -0.39955,1.50218 0.0445,0.0279 0.31706,-0.17381 0.60575,-0.4481 z m 28.27067,19.02998 c 0.13938,-0.22269 2.6136,-0.93923 4.08739,-1.18371 1.12661,-0.18688 2.46422,-0.10886 2.9096,0.16972 0.17559,0.10983 0.37466,0.38133 0.44238,0.60332 0.099,0.32453 0.0633,0.49928 -0.18236,0.89171 -0.26836,0.42878 -0.3895,0.50735 -0.99699,0.64657 -0.91148,0.20888 -2.81187,0.0471 -4.6335,-0.3945 -1.68493,-0.40844 -1.79786,-0.45934 -1.62652,-0.73311 z m 4.70296,0.82857 c 1.00965,0.0673 2.14745,-0.15357 2.33504,-0.4533 0.17888,-0.2858 0.0235,-0.87632 -0.28071,-1.0667 -0.62557,-0.39153 -3.25531,-0.13137 -5.51306,0.5454 l -0.77516,0.23236 1.65107,0.34006 c 0.90809,0.18704 2.07036,0.36802 2.58282,0.40218 z M 93.395653,90.38189 c -0.109167,-0.138871 -0.580643,-0.71848 -1.047724,-1.288026 -1.20222,-1.465954 -2.205398,-3.24989 -2.315472,-4.117572 -0.110039,-0.8674 0.184343,-1.436678 0.838767,-1.622007 1.223685,-0.346541 2.240825,1.44515 2.970525,5.232568 0.421445,2.187456 0.28716,2.727797 -0.446096,1.795037 z m 0.07888,-1.720976 c -0.68297,-3.426123 -1.555021,-5.126322 -2.515956,-4.90524 -0.813083,0.187065 -0.75113,1.283984 0.161728,2.863366 0.437082,0.756219 2.412628,3.49505 2.631929,3.648816 0.02728,0.01908 -0.09771,-0.704014 -0.277701,-1.606942 z"
       id="path919"
       inkscape:connector-curvature="0" />
    <path
       inkscape:connector-curvature="0"
       id="path921"
       d="m 124.58985,171.70618 c 0.20764,1.57764 -1.92211,2.00308 -5.72762,1.14414 -1.81724,-0.41017 -2.53337,-0.67267 -2.40121,-0.88018 0.13294,-0.20875 2.80058,-0.95041 4.26658,-1.1862 2.39246,-0.38479 3.73233,-0.0648 3.86225,0.92224 z m -1.89284,-0.67597 c -0.86297,-0.054 -3.26706,0.32978 -4.75229,0.75881 -0.81105,0.23429 -0.84464,0.2567 -0.49838,0.3325 0.20422,0.0447 0.99089,0.21837 1.7482,0.38591 3.24501,0.71787 5.15191,0.45227 5.01412,-0.69839 -0.0545,-0.45537 -0.56749,-0.71965 -1.51165,-0.77883 z M 60.092615,130.98118 c 0.497808,0.8653 0.852556,2.06015 1.217454,4.10062 0.307358,1.71864 0.21783,2.16545 -0.328918,1.64166 -0.587156,-0.56247 -2.1345,-2.66903 -2.621111,-3.56838 -0.259003,-0.4787 -0.53736,-1.16857 -0.618564,-1.53305 -0.128645,-0.57738 -0.107816,-0.72522 0.161662,-1.14837 0.248681,-0.39049 0.391068,-0.49789 0.726642,-0.54808 0.568041,-0.085 0.976057,0.2095 1.462835,1.0556 z m -1.635575,-0.61639 c -0.28003,0.1417 -0.364623,0.24877 -0.413418,0.52331 -0.150254,0.84513 0.808748,2.60546 2.744036,5.03693 l 0.386265,0.4853 -0.107894,-0.69736 c -0.218519,-1.41234 -0.775227,-3.41132 -1.182423,-4.24577 -0.506505,-1.03796 -0.920974,-1.35824 -1.426557,-1.10241 z m 66.8658,47.432 c 0.87316,0.91684 0.47024,2.46695 -0.74504,2.86626 -0.54939,0.18051 -1.7964,-0.23493 -2.99354,-0.99732 -1.51117,-0.96238 -4.04753,-3.18366 -5.35985,-4.69401 -0.47684,-0.5488 -0.18494,-0.71739 0.86429,-0.49915 4.01121,0.83429 7.01937,2.04872 8.23414,3.32422 z m -3.18737,-1.49119 c -1.5757,-0.59908 -5.06139,-1.55226 -5.3878,-1.4733 -0.16659,0.0403 1.98036,2.15001 3.27585,3.21901 1.44093,1.18904 3.14893,2.14461 3.94098,2.20484 1.28372,0.0977 1.89695,-1.07268 1.1167,-2.13112 -0.34856,-0.47282 -1.86111,-1.40704 -2.94573,-1.81943 z M 55.839329,133.60179 c 1.525515,1.47531 3.773524,4.26464 3.697022,4.58727 -0.0635,0.26801 -0.152046,0.28192 -0.693361,0.1093 -2.511885,-0.80088 -4.568566,-1.75851 -6.208296,-2.89069 -1.059914,-0.73179 -1.305136,-0.95546 -1.540382,-1.40449 -0.680216,-1.29843 0.483182,-2.67169 1.919704,-2.26602 0.635791,0.17955 2.043707,1.10872 2.825301,1.8646 z m -3.494907,-1.54399 c -1.001502,0.10084 -1.316235,0.89934 -0.756701,1.91974 0.305194,0.55655 0.436591,0.66965 1.665953,1.43398 1.257686,0.782 3.194644,1.6642 4.999024,2.27695 l 0.706989,0.2401 -0.217196,-0.33406 c -0.40978,-0.63023 -1.654078,-2.12965 -2.473131,-2.98021 -0.450723,-0.46805 -0.895986,-0.93345 -0.989459,-1.0342 -0.09352,-0.10077 -0.680322,-0.49574 -1.304064,-0.87779 -1.004168,-0.61497 -1.191094,-0.68884 -1.631415,-0.64451 z m 35.295281,23.20875 c 0.579812,0.61404 0.715668,0.83949 1.058099,1.75592 l 0.230677,0.61729 0.424326,-0.0706 c 0.23338,-0.0388 0.757205,-0.0449 1.164052,-0.0135 l 0.739736,0.057 11.017757,7.02256 11.01777,7.02255 -0.14714,0.29946 c -0.0959,0.19526 -0.23271,0.29256 -0.39303,0.2796 -0.13523,-0.011 -5.09373,-3.10028 -11.01886,-6.86518 l -10.772962,-6.84533 -0.614364,-0.0468 c -0.337902,-0.0257 -0.790597,0.008 -1.005993,0.074 l -0.391639,0.12075 -0.150556,0.91811 c -0.10653,0.64971 -0.256338,1.0822 -0.512431,1.47939 -0.383405,0.59459 -0.646888,0.76729 -1.144145,0.7498 -0.638425,-0.0224 -1.310796,-0.66989 -1.335574,-1.28601 -0.0182,-0.45163 0.686513,-1.41554 1.483825,-2.02965 0.404768,-0.31178 0.71601,-0.62452 0.691652,-0.69497 -0.634084,-1.83402 -0.874151,-2.05577 -4.520446,-4.17555 -3.336468,-1.93967 -14.522238,-9.02362 -17.671073,-11.19106 -2.120964,-1.45991 -2.42542,-1.77398 -1.963435,-2.0252 0.206928,-0.11254 1.030314,0.38836 10.639288,6.47248 5.728268,3.62692 10.917175,6.86921 11.530889,7.20512 0.792811,0.43389 1.26867,0.7725 1.643666,1.16962 z m -14.613479,-8.82091 c -5.432023,-3.45937 -8.441319,-5.32807 -7.497065,-4.65543 0.86759,0.61797 6.173767,4.03289 11.791549,7.58861 l 10.214115,6.465 0.289197,0.55855 c 0.437416,0.84479 0.617143,1.50634 0.471404,1.7352 -0.072,0.11305 -0.438228,0.42634 -0.813826,0.69618 -1.339268,0.9622 -1.641729,1.8687 -0.801937,2.40352 0.430174,0.27397 0.77148,0.25034 1.169984,-0.081 0.229462,-0.19071 0.598587,-1.3372 0.639353,-1.98552 0.04512,-0.7165 0.25874,-0.9591 0.935702,-1.0624 1.409441,-0.21511 0.640999,-0.63354 10.98688,5.98294 5.12494,3.27753 10.02978,6.36063 10.89964,6.85129 0.86986,0.49064 -3.30679,-2.21688 -9.28144,-6.01674 -10.721246,-6.8183 -10.870994,-6.90963 -11.47388,-6.97368 -0.335993,-0.0357 -0.876732,-0.01 -1.201623,0.0569 -0.694473,0.14307 -0.801516,0.0955 -0.904212,-0.40124 -0.126263,-0.61076 -0.551924,-1.4395 -1.017906,-1.98179 -0.356368,-0.41472 -0.891439,-0.7774 -2.884503,-1.95519 -1.345833,-0.79532 -6.53053,-4.04655 -11.521503,-7.22504 z m 15.346038,12.42925 c 0.03623,0.46846 -0.219964,1.50305 -0.470912,1.90183 -0.322849,0.51254 -0.703917,0.63188 -1.137714,0.35561 -0.561084,-0.35733 -0.577998,-0.66032 -0.07409,-1.32774 0.44824,-0.59364 1.282387,-1.24033 1.527786,-1.1844 0.07567,0.0173 0.14542,0.13185 0.154916,0.2547 z m -1.05675,0.74831 c -0.645275,0.60352 -0.737577,0.95786 -0.30286,1.16258 0.215092,0.10129 0.351696,0.0722 0.500786,-0.1069 0.225176,-0.27037 0.539822,-1.41717 0.411319,-1.499 -0.04428,-0.0283 -0.318413,0.17131 -0.609245,0.44333 z M 59.194977,140.37206 c -0.141122,0.22158 -2.620886,0.9187 -4.096549,1.15161 -1.12804,0.17804 -2.465008,0.0893 -2.908179,-0.19254 -0.174723,-0.1112 -0.371657,-0.38426 -0.437634,-0.60676 -0.09645,-0.3253 -0.05938,-0.49977 0.189349,-0.89026 0.271715,-0.42666 0.393467,-0.50429 1.00203,-0.63873 0.91309,-0.20173 2.812151,-0.0251 4.630264,0.43083 1.681674,0.42164 1.794201,0.47343 1.620719,0.74585 z m -4.696316,-0.86544 c -1.00909,-0.0752 -2.148587,0.13677 -2.338523,0.43497 -0.181117,0.28439 -0.03038,0.87611 0.272335,1.06888 0.622479,0.39641 3.254179,0.1569 5.517168,-0.50214 l 0.776959,-0.22629 -1.648353,-0.353 c -0.906594,-0.19415 -2.06741,-0.38424 -2.579586,-0.42242 z m 60.382629,36.51929 c 0.10808,0.13973 0.57499,0.72301 1.0376,1.29621 1.19067,1.47534 2.17983,3.2671 2.28309,4.13562 0.10323,0.86822 -0.1956,1.43518 -0.85145,1.61536 -1.22637,0.33694 -2.22942,-1.46267 -2.9294,-5.2557 -0.40427,-2.19069 -0.26575,-2.72997 0.46016,-1.79149 z m -0.0924,1.7203 c 0.65608,3.43139 1.51477,5.13838 2.4774,4.92484 0.81453,-0.18068 0.76118,-1.27806 -0.13932,-2.86455 -0.43114,-0.75964 -2.38514,-3.51387 -2.60322,-3.66935 -0.0271,-0.0194 0.0922,0.70476 0.26508,1.60906 z"
       style="fill:#ffffff;stroke-width:0.12706424" />
  </g>
</svg>
